<?xml version="1.0" encoding="UTF-8" standalone="no"?>
<!-- Created with Inkscape (http://www.inkscape.org/) -->

<svg
   version="1.1"
   id="svg1"
   width="330"
   height="330"
   viewBox="0 0 330 330"
   sodipodi:docname="Screenshot_20250412_181358.png"
   xmlns:inkscape="http://www.inkscape.org/namespaces/inkscape"
   xmlns:sodipodi="http://sodipodi.sourceforge.net/DTD/sodipodi-0.dtd"
   xmlns="http://www.w3.org/2000/svg"
   xmlns:svg="http://www.w3.org/2000/svg">
  <defs
     id="defs1" />
  <sodipodi:namedview
     id="namedview1"
     pagecolor="#ffffff"
     bordercolor="#000000"
     borderopacity="0.25"
     inkscape:showpageshadow="2"
     inkscape:pageopacity="0.0"
     inkscape:pagecheckerboard="0"
     inkscape:deskcolor="#d1d1d1"
     showgrid="false" />
  <g
     inkscape:groupmode="layer"
     inkscape:label="Image"
     id="g1"
     transform="translate(-6.5,-5.5)">
    <path
       style="fill:#000000"
       d="m 6.5,300.5 v -35 h 35 35 v 35 35 h -35 -35 z m 60,0 v -25 h -25 -25 v 25 25 h 25 25 z m -40,0 v -15 h 15 15 v 15 15 h -15 -15 z m 60,10 v -25 h 5 5 v -5 -5 h -5 -5 v -10 -10 h -25 -25 v -5 -5 h -5 -5 v -5 -5 h 10 10 v -5 -5 h -10 -10 v -5 -5 h -5 -5 v 20 20 h -5 -5 v -20 -20 h 5 5 v -10 -10 h -5 -5 v -5 -5 h 10 10 v 5 5 h 5 5 v 5 5 h -5 -5 v 5 5 h 10 10 v -5 -5 h 5 5 v 10 10 h 15 15 v -5 -5 h -10 -10 v -5 -5 h 5 5 v -5 -5 h -15 -15 v -10 -10 h -10 -10 v -5 -5 h -10 -10 v -5 -5 h 10 10 v -10 -10 h -5 -5 v -5 -5 h -5 -5 v -10 -10 h 5 5 v -5 -5 h -5 -5 v -5 -5 h 25 25 v 5 5 h 5 5 v -5 -5 h 25 25 v 5 5 h 5 5 v 5 5 h -5 -5 v -5 -5 h -5 -5 v 10 10 h 5 5 v 5 5 h -5 -5 v 5 5 h 10 10 v -5 -5 h 20 20 v -5 -5 h -5 -5 v -5 -5 h 5 5 v -5 -5 h -15 -15 v -5 -5 h 5 5 v -20 -20 h -5 -5 v 15 15 h -5 -5 v -15 -15 h -5 -5 v 15 15 h -5 -5 v -15 -15 h -10 -10 v -5 -5 h 5 5 v -5 -5 h -5 -5 v -5 -5 h 5 5 v -5 -5 h 5 5 v 10 10 h 5 5 v -5 -5 h 10 10 v 5 5 h -5 -5 v 5 5 h 15 15 v -10 -10 h -5 -5 v -5 -5 h 15 15 v 15 15 h 5 5 v -5 -5 h 10 10 v 5 5 h 5 5 v -10 -10 h -10 -10 v -5 -5 h 25 25 v 5 5 h 5 5 v 5 5 h -5 -5 v -5 -5 h -10 -10 v 10 10 h 15 15 v 5 5 h -5 -5 v 5 5 h -5 -5 v 20 20 h 5 5 v 5 5 h -5 -5 v -5 -5 h -5 -5 v -5 -5 h -5 -5 v 15 15 h 5 5 v 5 5 h 5 5 v 5 5 h 10 10 v -5 -5 h 5 5 v 5 5 h 5 5 v -15 -15 h -5 -5 v 5 5 h -5 -5 v -5 -5 h 5 5 v -5 -5 h -5 -5 v -5 -5 h 5 5 v 5 5 h 5 5 v -5 -5 h 5 5 v 5 5 h -5 -5 v 5 5 h 5 5 v 5 5 h 5 5 v -15 -15 h 5 5 v 15 15 h 5 5 v -5 -5 h 5 5 v -5 -5 h -5 -5 v -5 -5 h 5 5 v 5 5 h 5 5 v 5 5 h -5 -5 v 5 5 h 5 5 v 5 5 h -20 -20 v 5 5 h -10 -10 v 10 10 h 5 5 v -5 -5 h 20 20 v -5 -5 h 5 5 v 5 5 h -5 -5 v 5 5 h -5 -5 v 5 5 h 5 5 v 5 5 h 5 5 v 5 5 h -5 -5 v 10 10 h 5 5 v 10 10 h -5 -5 v 5 5 h 5 5 v 5 5 h -5 -5 v -5 -5 h -5 -5 v 5 5 h -10 -10 v 15 15 h 10 10 v -5 -5 h -5 -5 v -5 -5 h 5 5 v 5 5 h 5 5 v -5 -5 h 5 5 v 5 5 h -5 -5 v 5 5 h 5 5 v 10 10 h -5 -5 v -10 -10 h -5 -5 v 5 5 h -10 -10 v 10 10 h 5 5 v -5 -5 h 5 5 v 5 5 h 5 5 v 5 5 h -5 -5 v 5 5 h 5 5 v 5 5 h -5 -5 v -5 -5 h -5 -5 v 5 5 h -5 -5 v -5 -5 h 5 5 v -5 -5 h -5 -5 v -5 -5 h -5 -5 v -5 -5 h -10 -10 v 5 5 h 5 5 v 5 5 h -5 -5 v 5 5 h 10 10 v 5 5 h -30 -30 v -5 -5 h -5 -5 v 5 5 h -5 -5 v -5 -5 h 5 5 v -15 -15 h -5 -5 v 5 5 h -5 -5 v -5 -5 h -5 -5 v 10 10 h -5 -5 v 5 5 h 5 5 v 5 5 h -5 -5 v -5 -5 h -10 -10 v -10 -10 h -5 -5 v 5 5 h -5 -5 v 5 5 h 5 5 v 5 5 h -5 -5 v -5 -5 h -5 -5 v -10 -10 h -5 -5 v -5 -5 h -5 -5 v -5 -5 h -5 -5 v 10 10 h 5 5 v 5 5 h 5 5 v 10 10 h -5 -5 v -10 -10 h -5 -5 v 10 10 h -5 -5 z m 170,10 v -5 h 5 5 v -5 -5 h -5 -5 v 5 5 h -10 -10 v -5 -5 h 5 5 v -10 -10 h -5 -5 v 10 10 h -5 -5 v 10 10 h 15 15 z m 60,-10 v -5 h -5 -5 v 5 5 h 5 5 z m -170,-10 v -5 h 5 5 v 5 5 h 5 5 v -5 -5 h 5 5 v -5 -5 h 5 5 v -5 -5 h 10 10 v -5 -5 h -15 -15 v 10 10 h -5 -5 v 5 5 h -5 -5 v -5 -5 h -5 -5 v -10 -10 h 10 10 v -5 -5 h -5 -5 v -5 -5 h 15 15 v 5 5 h 5 5 v -5 -5 h -5 -5 v -10 -10 h 5 5 v 5 5 h 5 5 v 10 10 h 5 5 v 5 5 h 10 10 v -5 -5 h 5 5 v -5 -5 h -5 -5 v 5 5 h -5 -5 v -5 -5 h -5 -5 v -10 -10 h -10 -10 v -10 -10 h -5 -5 v -10 -10 h 5 5 v 5 5 h 15 15 v 5 5 h -10 -10 v 5 5 h 10 10 v -5 -5 h 5 5 v 5 5 h 5 5 v 5 5 h -10 -10 v 5 5 h 15 15 v 5 5 h 10 10 v -5 -5 h 5 5 v 5 5 h 5 5 v -5 -5 h 10 10 v -5 -5 h 5 5 v -10 -10 h -10 -10 v -5 -5 h 5 5 v -15 -15 h -10 -10 v -5 -5 h -5 -5 v 5 5 h -5 -5 v -5 -5 h -10 -10 v -5 -5 h 5 5 v -5 -5 h -5 -5 v 5 5 h -10 -10 v -5 -5 h -5 -5 v -5 -5 h -15 -15 v -5 -5 h 5 5 v -5 -5 h -5 -5 v 5 5 h -5 -5 v -10 -10 h 10 10 v -5 -5 h -10 -10 v -10 -10 h 5 5 v 5 5 h 5 5 v -10 -10 h -10 -10 v -5 -5 h 10 10 v -5 -5 h -10 -10 v 5 5 h -10 -10 v -5 -5 h -5 -5 v 10 10 h 15 15 v 5 5 h -5 -5 v 10 10 h -5 -5 v 5 5 h 5 5 v 15 15 h -5 -5 v 5 5 h -10 -10 v 5 5 h -5 -5 v -5 -5 h -5 -5 v 5 5 h -10 -10 v -5 -5 h -5 -5 v -5 -5 h -5 -5 v -5 -5 h -10 -10 v -5 -5 h 15 15 v -5 -5 h -15 -15 v 5 5 h -25 -25 v 10 10 h 5 5 v 5 5 h 5 5 v -5 -5 h 5 5 v 10 10 h -5 -5 v 5 5 h -5 -5 v 5 5 h 5 5 v -5 -5 h 5 5 v 5 5 h 15 15 v 5 5 h -5 -5 v 5 5 h 5 5 v 5 5 h 5 5 v 10 10 h 5 5 v -10 -10 h 5 5 v -5 -5 h 5 5 v 10 10 h -5 -5 v 5 5 h 5 5 v -5 -5 h 15 15 v -5 -5 h 5 5 v 5 5 h 15 15 v 10 10 h -5 -5 v 5 5 h -10 -10 v -5 -5 h 5 5 v -5 -5 h -20 -20 v 5 5 h -5 -5 v 5 5 h -5 -5 v -5 -5 h -10 -10 v 15 15 h 5 5 v 10 10 h 15 15 v 5 5 h -5 -5 v 5 5 h 5 5 v 5 5 h 10 10 z m -10,-10 v -5 h 5 5 v 5 5 h -5 -5 z m -30,-30 v -5 h 10 10 v -10 -10 h 5 5 v -5 -5 h 5 5 v 5 5 h 5 5 v 5 5 h -5 -5 v 5 5 h -10 -10 v 5 5 h -10 -10 z m 40,-20 v -5 h -5 -5 v 5 5 h 5 5 z m -50,0 v -5 h 5 5 v 5 5 h -5 -5 z m 160,-20 v -5 h 10 10 v -5 -5 h 15 15 v 5 5 h -15 -15 v 5 5 h -10 -10 z m -20,-20 v -5 h -5 -5 v -5 -5 h -15 -15 v -5 -5 h -10 -10 v 10 10 h -10 -10 v -5 -5 h 5 5 v -5 -5 h -10 -10 v 5 5 h -5 -5 v 5 5 h -5 -5 v -5 -5 h -5 -5 v -5 -5 h -15 -15 v 5 5 h -5 -5 v -5 -5 h 5 5 v -5 -5 h -5 -5 v -5 -5 h -15 -15 v -5 -5 h 5 5 v -10 -10 h -5 -5 v -5 -5 h 10 10 v 5 5 h 10 10 v 5 5 h 5 5 v 5 5 h 5 5 v 5 5 h 5 5 v 5 5 h 20 20 v -5 -5 h -5 -5 v -5 -5 h 10 10 v -5 -5 h 5 5 v -5 -5 h 10 10 v 5 5 h 15 15 v 5 5 h 5 5 v 10 10 h 15 15 v 5 5 h 5 5 v 10 10 h -5 -5 v -10 -10 h -10 -10 v 5 5 h -5 -5 v 5 5 h 10 10 v 5 5 h -10 -10 z m -100,-20 v -5 h -5 -5 v 5 5 h 5 5 z m 100,0 v -5 h -5 -5 v -5 -5 h -5 -5 v -5 -5 h -5 -5 v -5 -5 h -5 -5 v -5 -5 h -5 -5 v 5 5 h -5 -5 v 5 5 h -5 -5 v 10 10 h 5 5 v -5 -5 h 10 10 v 5 5 h 5 5 v -5 -5 h 5 5 v 5 5 h 5 5 v 5 5 h 5 5 z m -50,-30 v -5 h 5 5 v 5 5 h -5 -5 z m -90,0 v -5 h -5 -5 v -5 -5 h -10 -10 v 5 5 h 10 10 v 5 5 h 5 5 z m 200,30 v -5 h -5 -5 v -5 -5 h 5 5 v 5 5 h 5 5 v 5 5 h -5 -5 z m -170,-30 v -5 h 5 5 v 5 5 h -5 -5 z m -100,-30 v -5 h 5 5 v 5 5 h -5 -5 z m 150,-30 v -5 h 5 5 v 5 5 h -5 -5 z m 30,200 v -5 h -5 -5 v 5 5 h 5 5 z m 20,0 v -5 h -5 -5 v 5 5 h 5 5 z m 60,-20 v -15 h -15 -15 v 15 15 h 15 15 z m -20,0 v -5 h 5 5 v 5 5 h -5 -5 z m -190,-30 v -5 h -5 -5 v 5 5 h 5 5 z m 90,-170 v -5 h -5 -5 v 5 5 h 5 5 z m 60,0 v -5 h -5 -5 v 5 5 h 5 5 z m 10,-20 v -5 h -5 -5 v -5 -5 h -5 -5 v 10 10 h 10 10 z m -120,-10 v -5 h -5 -5 v 5 5 h 5 5 z m 20,70 v -5 h 5 5 v 5 5 h -5 -5 z m -130,-70 v -35 h 35 35 v 35 35 h -35 -35 z m 60,0 v -25 h -25 -25 v 25 25 h 25 25 z m -40,0 v -15 h 15 15 v 15 15 h -15 -15 z m 60,25 v -10 h 5 5 v 10 10 h -5 -5 z m 160,5 v -5 h 5 5 v 5 5 h -5 -5 z m 20,-30 v -35 h 35 35 v 35 35 h -35 -35 z m 60,0 v -25 h -25 -25 v 25 25 h 25 25 z m -40,0 v -15 h 15 15 v 15 15 h -15 -15 z"
       id="path1" />
  </g>
</svg>
