<?xml version="1.0" encoding="UTF-8" standalone="no"?>
<svg
   width="24"
   height="24"
   viewBox="0 0 24 24"
   fill="none"
   version="1.1"
   id="svg1"
   sodipodi:docname="github.svg"
   inkscape:version="1.3.2 (091e20ef0f, 2023-11-25, custom)"
   xmlns:inkscape="http://www.inkscape.org/namespaces/inkscape"
   xmlns:sodipodi="http://sodipodi.sourceforge.net/DTD/sodipodi-0.dtd"
   xmlns="http://www.w3.org/2000/svg"
   xmlns:svg="http://www.w3.org/2000/svg">
  <defs
     id="defs1" />
  <sodipodi:namedview
     id="namedview1"
     pagecolor="#ffffff"
     bordercolor="#000000"
     borderopacity="0.25"
     inkscape:showpageshadow="2"
     inkscape:pageopacity="0.0"
     inkscape:pagecheckerboard="true"
     inkscape:deskcolor="#d1d1d1"
     inkscape:zoom="36.291667"
     inkscape:cx="11.986223"
     inkscape:cy="12"
     inkscape:window-width="1920"
     inkscape:window-height="1048"
     inkscape:window-x="0"
     inkscape:window-y="32"
     inkscape:window-maximized="1"
     inkscape:current-layer="svg1" />
  <path
     d="M 9.4892781,18.991033 C 5.1708368,20.397037 5.1708368,16.480312 3.4635461,15.978167 M 15.51501,20.99961 V 17.4846 c 0,-1.004288 0.100429,-1.406004 -0.502144,-2.008578 2.812008,-0.301286 5.523588,-1.406004 5.523588,-6.0257815 -0.0012,-1.2001552 -0.469505,-2.3527371 -1.305576,-3.2137238 0.392175,-1.0424817 0.356021,-2.1977552 -0.100428,-3.2137238 0,0 -1.104718,-0.3012866 -3.515011,1.3055753 -2.041518,-0.5316804 -4.185072,-0.5316804 -6.2265897,0 C 6.9785565,2.7215063 5.8738389,3.0227929 5.8738389,3.0227929 5.4173696,4.0387615 5.3812654,5.194035 5.7734101,6.2365167 4.9372895,7.0975034 4.46906,8.2500853 4.4678347,9.4502405 c 0,4.6197775 2.7115794,5.7244955 5.5235878,6.0257815 -0.6025732,0.602574 -0.6025732,1.205147 -0.5021444,2.008578 v 3.51501"
     stroke="#ffffff"
     stroke-width="2.00078"
     stroke-linecap="round"
     stroke-linejoin="round"
     id="path1" />
</svg>
