<?xml version="1.0" encoding="UTF-8" standalone="no"?>
<svg
   width="24"
   height="24"
   viewBox="0 0 24 24"
   fill="none"
   version="1.1"
   id="svg1"
   sodipodi:docname="github.svg"
   inkscape:version="1.3.2 (091e20ef0f, 2023-11-25, custom)"
   xmlns:inkscape="http://www.inkscape.org/namespaces/inkscape"
   xmlns:sodipodi="http://sodipodi.sourceforge.net/DTD/sodipodi-0.dtd"
   xmlns="http://www.w3.org/2000/svg"
   xmlns:svg="http://www.w3.org/2000/svg">
  <defs
     id="defs1" />
  <sodipodi:namedview
     id="namedview1"
     pagecolor="#ffffff"
     bordercolor="#000000"
     borderopacity="0.25"
     inkscape:showpageshadow="2"
     inkscape:pageopacity="0.0"
     inkscape:pagecheckerboard="true"
     inkscape:deskcolor="#d1d1d1"
     inkscape:zoom="28.849662"
     inkscape:cx="12.513145"
     inkscape:cy="15.164822"
     inkscape:window-width="1920"
     inkscape:window-height="1048"
     inkscape:window-x="0"
     inkscape:window-y="32"
     inkscape:window-maximized="1"
     inkscape:current-layer="layer1" />
  <g
     inkscape:groupmode="layer"
     id="layer1"
     inkscape:label="Layer 1">
    <path
       d="M 9.363742,19.340585 C 4.8293786,20.816889 4.8293786,16.704328 3.0367234,16.177075 M 15.69076,21.449591 V 17.75883 c 0,-1.054502 0.105451,-1.476304 -0.527251,-2.109007 2.952609,-0.31635 5.799768,-1.476304 5.799768,-6.3270705 -0.0013,-1.2601629 -0.492981,-2.4703739 -1.370855,-3.37441 0.411784,-1.0946057 0.373822,-2.3076429 -0.10545,-3.37441 0,0 -1.159953,-0.3163509 -3.690761,1.3708541 -2.143594,-0.5582644 -4.394326,-0.5582644 -6.5379192,0 C 6.7274843,2.2575816 5.5675308,2.5739325 5.5675308,2.5739325 5.0882381,3.6406996 5.0503287,4.8537368 5.4620806,5.9483425 4.584154,6.8523786 4.092513,8.0625896 4.0912264,9.3227525 c 0,4.8507665 2.8471584,6.0107205 5.7997672,6.3270705 -0.6327018,0.632703 -0.6327018,1.265404 -0.5272516,2.109007 v 3.690761"
       stroke="#ffffff"
       stroke-width="2.10082"
       stroke-linecap="round"
       stroke-linejoin="round"
       id="path1"
       style="opacity:1;stroke:#000000;stroke-opacity:1" />
  </g>
</svg>
