<?xml version="1.0" encoding="UTF-8" standalone="no"?>
<svg
   width="24"
   height="24"
   viewBox="0 0 24 24"
   fill="none"
   version="1.1"
   id="svg5"
   sodipodi:docname="linkedin.svg"
   inkscape:version="1.3.2 (091e20ef0f, 2023-11-25, custom)"
   xmlns:inkscape="http://www.inkscape.org/namespaces/inkscape"
   xmlns:sodipodi="http://sodipodi.sourceforge.net/DTD/sodipodi-0.dtd"
   xmlns="http://www.w3.org/2000/svg"
   xmlns:svg="http://www.w3.org/2000/svg">
  <defs
     id="defs5" />
  <sodipodi:namedview
     id="namedview5"
     pagecolor="#ffffff"
     bordercolor="#000000"
     borderopacity="0.25"
     inkscape:showpageshadow="2"
     inkscape:pageopacity="0.0"
     inkscape:pagecheckerboard="true"
     inkscape:deskcolor="#d1d1d1"
     inkscape:zoom="29.666667"
     inkscape:cx="12.033708"
     inkscape:cy="14.747191"
     inkscape:window-width="1920"
     inkscape:window-height="1048"
     inkscape:window-x="0"
     inkscape:window-y="32"
     inkscape:window-maximized="1"
     inkscape:current-layer="svg5" />
  <g
     id="g5"
     transform="matrix(1.0158014,0,0,1.0158014,-1.1546279,-1.1546279)"
     style="stroke:#000000;stroke-opacity:1">
    <path
       d="m 4.1055556,6.3166667 c 0,-0.5864199 0.2329516,-1.148827 0.6476233,-1.5634878 C 5.1678397,4.3385072 5.7302468,4.1055556 6.3166667,4.1055556 H 19.583333 c 0.586387,0 1.148783,0.2329516 1.563477,0.6476233 0.414694,0.4146608 0.647634,0.9770679 0.647634,1.5634878 V 19.583333 c 0,0.586387 -0.23294,1.148783 -0.647634,1.563477 -0.414694,0.414694 -0.97709,0.647634 -1.563477,0.647634 H 6.3166667 c -0.5864199,0 -1.148827,-0.23294 -1.5634878,-0.647634 C 4.3385072,20.732116 4.1055556,20.16972 4.1055556,19.583333 Z"
       stroke="#ffffff"
       stroke-width="2"
       stroke-linecap="round"
       stroke-linejoin="round"
       id="path1"
       style="stroke:#000000;stroke-opacity:1" />
    <path
       d="m 8.5277778,11.844444 v 5.527778"
       stroke="#ffffff"
       stroke-width="2"
       stroke-linecap="round"
       stroke-linejoin="round"
       id="path2"
       style="stroke:#000000;stroke-opacity:1" />
    <path
       d="m 8.5277778,8.5277778 v 0.011055"
       stroke="#ffffff"
       stroke-width="2"
       stroke-linecap="round"
       stroke-linejoin="round"
       id="path3"
       style="stroke:#000000;stroke-opacity:1" />
    <path
       d="M 12.95,17.372222 V 11.844444"
       stroke="#ffffff"
       stroke-width="2"
       stroke-linecap="round"
       stroke-linejoin="round"
       id="path4"
       style="stroke:#000000;stroke-opacity:1" />
    <path
       d="m 17.372222,17.372222 v -3.316666 c 0,-0.586387 -0.23294,-1.148783 -0.647634,-1.563477 -0.414694,-0.414694 -0.97709,-0.647635 -1.563477,-0.647635 -0.586387,0 -1.148783,0.232941 -1.563477,0.647635 C 13.182941,12.906773 12.95,13.469169 12.95,14.055556"
       stroke="#ffffff"
       stroke-width="2"
       stroke-linecap="round"
       stroke-linejoin="round"
       id="path5"
       style="stroke:#000000;stroke-opacity:1" />
  </g>
</svg>
